<svg width="183" height="76" viewBox="0 0 183 76" fill="none" xmlns="http://www.w3.org/2000/svg">
<path d="M22.4541 2.39766H64.2019V38.806H22.4541C17.7161 38.806 13.1722 36.9239 9.82201 33.5736C6.47177 30.2234 4.58963 25.6795 4.58963 20.9416V20.2717C4.58837 17.9249 5.04951 15.6009 5.94672 13.4323C6.84393 11.2638 8.15961 9.29332 9.81861 7.63343C11.4776 5.97355 13.4474 4.6568 15.6154 3.75843C17.7835 2.86005 20.1073 2.39766 22.4541 2.39766V2.39766Z" fill="white"/>
<path fill-rule="evenodd" clip-rule="evenodd" d="M46.9464 74.3074H7.06067V37.9087H46.9464C51.5959 37.9087 56.055 39.7557 59.3428 43.0434C62.6305 46.3311 64.4775 50.7902 64.4775 55.4398V56.7762C64.4775 59.0785 64.0241 61.3581 63.143 63.4851C62.262 65.6121 60.9707 67.5447 59.3428 69.1726C57.7149 70.8005 55.7822 72.0919 53.6553 72.9729C51.5283 73.8539 49.2486 74.3074 46.9464 74.3074ZM56.7407 56.4878H12.9225V57.3851H56.7407V56.4878ZM19.6978 51.395L19.6658 51.4335C19.7523 52.5296 20.6561 53.2315 21.8227 53.2315C22.9893 53.2315 23.8995 52.536 23.8995 51.4111C23.8995 50.3791 23.1656 49.924 22.1753 49.69C21.3035 49.4945 20.8324 49.315 20.8324 48.8535C20.8324 48.5074 21.1817 48.2766 21.6945 48.2766C21.8198 48.262 21.9468 48.273 22.0678 48.3089C22.1887 48.3447 22.3012 48.4048 22.3982 48.4854C22.4953 48.566 22.575 48.6655 22.6326 48.7778C22.6901 48.8901 22.7242 49.0129 22.7329 49.1387L23.6111 49.0907L23.6527 49.0458C23.547 48.1003 22.8611 47.4786 21.7009 47.4786C20.6625 47.4786 19.8741 48.0202 19.8741 48.908C19.8741 49.7958 20.5824 50.1868 21.5439 50.4111C22.4284 50.6098 22.9092 50.8822 22.9092 51.4655C22.9092 52.0488 22.4445 52.3693 21.8548 52.3693C21.7043 52.3807 21.5532 52.3621 21.41 52.3146C21.2668 52.2671 21.1345 52.1917 21.0206 52.0928C20.9067 51.9938 20.8136 51.8733 20.7467 51.7381C20.6797 51.6029 20.6402 51.4558 20.6305 51.3053L19.6978 51.395ZM25.4604 47.5587H26.4571V53.1514H25.4604V47.5587ZM29.1428 47.5587H28.1429L28.1397 53.1514H29.1011V49.6419H29.1332L29.1716 49.9945L30.4088 53.1514H31.3286L32.5689 49.9945L32.6074 49.6419H32.6394V53.1514H33.6009V47.5587H32.6042L30.8703 51.9207L29.1428 47.5587ZM35.2899 47.5587H37.3667C38.6487 47.5587 39.5077 48.2542 39.5077 49.4272C39.5077 50.6002 38.6455 51.3053 37.3667 51.3053H36.2867V53.1514H35.2899V47.5587ZM37.3347 50.4271C38.0847 50.4271 38.5077 50.1227 38.5077 49.4272C38.5077 48.7317 38.0847 48.4369 37.3347 48.4369H36.2867V50.4271H37.3347ZM42.0203 47.5587H41.0332V53.1514H44.7606V52.2732H42.0203V47.5587ZM46.3503 47.5587H49.8757V48.4369H47.3406V49.9144H49.6578V50.7957H47.3406V52.2732H49.9623V53.1514H46.3503V47.5587ZM13.8167 60.7311H12.8263L12.8167 66.3238H13.8167V63.9681H16.1755V66.3238H17.1723V60.7311H16.1755V63.0867H13.8167V60.7311ZM18.8677 60.7311H22.3932V61.6093H19.8581V63.0867H22.1753V63.9681H19.8581V65.4456H22.4797V66.3238H18.8581L18.8677 60.7311ZM26.6846 60.7311H25.7424L23.672 66.3238H24.7264L25.0693 65.311H27.3481L27.707 66.3238H28.755L26.6846 60.7311ZM26.3161 62.3304L27.0436 64.4392H25.3738L26.1109 62.3304L26.2039 61.7214H26.2295L26.3161 62.3304ZM30.0402 60.7311H31.0401V65.4456H33.7804V66.3238H30.0402V60.7311ZM34.0304 61.6093H35.4438V66.3238H36.4437V61.6093H37.8539V60.7311H34.0304V61.6093ZM39.2737 60.7311H40.2704V63.0867H42.6293V60.7311H43.6228V66.3238H42.6293V63.9681H40.2704V66.3238H39.2737V60.7311ZM46.3118 60.7311H45.3151V66.3238H46.3118V63.7822H46.3374L48.3277 66.3238H49.5809L47.2156 63.3528L49.4847 60.7311H48.3277L46.3374 63.0483H46.3118V60.7311ZM50.9493 60.7311H51.9557V66.3238H50.959L50.9493 60.7311ZM53.3627 61.6093H54.7761V66.3238H55.776V61.6093H57.1894V60.7311H53.3627V61.6093Z" fill="white"/>
<path d="M123.756 74.0541V2.07716H179.327L155.905 37.9663L179.327 74.0541H123.756Z" fill="white"/>
<path d="M94.7707 2.36237V24.7939H92.8894V2.36237H66.2722V74.0541H92.8894V51.8469H94.7098V74.0541H121.843V2.36237H94.7707Z" fill="white"/>
</svg>
